<svg width="2271" height="87" viewBox="0 0 2271 87" fill="none" xmlns="http://www.w3.org/2000/svg">
<rect width="2271" height="87" fill="#444444"/>
<rect x="16" y="29" width="95" height="9" fill="#CFCFCF"/>
<rect x="1168" y="29" width="95" height="9" fill="#CFCFCF"/>
<rect x="2032" y="29" width="95" height="9" fill="#CFCFCF"/>
<rect x="592" y="29" width="95" height="9" fill="#CFCFCF"/>
<rect x="1456" y="29" width="95" height="9" fill="#CFCFCF"/>
<rect x="160" y="29" width="95" height="9" fill="#CFCFCF"/>
<rect x="1312" y="29" width="95" height="9" fill="#CFCFCF"/>
<rect x="2176" y="29" width="95" height="9" fill="#CFCFCF"/>
<rect x="736" y="29" width="95" height="9" fill="#CFCFCF"/>
<rect x="1600" y="29" width="95" height="9" fill="#CFCFCF"/>
<rect x="880" y="29" width="95" height="9" fill="#CFCFCF"/>
<rect x="1744" y="29" width="95" height="9" fill="#CFCFCF"/>
<rect x="304" y="29" width="95" height="9" fill="#CFCFCF"/>
<rect x="448" y="29" width="95" height="9" fill="#CFCFCF"/>
<rect x="1024" y="29" width="95" height="9" fill="#CFCFCF"/>
<rect x="1888" y="29" width="95" height="9" fill="#CFCFCF"/>
</svg>
