<svg width="211" height="76" viewBox="0 0 211 76" fill="none" xmlns="http://www.w3.org/2000/svg">
<g filter="url(#filter0_d_3_97)">
<rect x="11.0121" y="7.8223" width="188.462" height="52.3077" rx="26.1538" fill="#390000"/>
<rect x="12.0121" y="8.8223" width="186.462" height="50.3077" rx="25.1538" stroke="#010042" stroke-width="2"/>
</g>
<path d="M64.9375 45H57.0824V19.5455H65.2855C67.7547 19.5455 69.8677 20.055 71.6243 21.0742C73.3809 22.0851 74.7274 23.5393 75.6637 25.4368C76.6 27.326 77.0682 29.5881 77.0682 32.223C77.0682 34.8745 76.5959 37.1573 75.6513 39.0714C74.7067 40.9772 73.3312 42.4438 71.5249 43.4712C69.7185 44.4904 67.5227 45 64.9375 45ZM60.1648 42.2656H64.7386C66.8433 42.2656 68.5875 41.8596 69.9712 41.0476C71.355 40.2356 72.3866 39.0797 73.0661 37.5799C73.7455 36.0801 74.0852 34.2945 74.0852 32.223C74.0852 30.1681 73.7496 28.399 73.0785 26.9158C72.4073 25.4244 71.4047 24.2809 70.0707 23.4854C68.7366 22.6817 67.0753 22.2798 65.0866 22.2798H60.1648V42.2656ZM89.8452 45.3977C88.0057 45.3977 86.4189 44.9917 85.0849 44.1797C83.7591 43.3594 82.7358 42.2159 82.0149 40.7493C81.3023 39.2744 80.946 37.5592 80.946 35.6037C80.946 33.6482 81.3023 31.9247 82.0149 30.4332C82.7358 28.9335 83.7384 27.7652 85.0227 26.9283C86.3153 26.0831 87.8234 25.6605 89.5469 25.6605C90.5412 25.6605 91.5231 25.8262 92.4925 26.1577C93.462 26.4891 94.3445 27.0277 95.1399 27.7734C95.9354 28.5109 96.5692 29.4886 97.0415 30.7067C97.5138 31.9247 97.75 33.4245 97.75 35.206V36.4489H83.0341V33.9134H94.767C94.767 32.8362 94.5516 31.875 94.1207 31.0298C93.6982 30.1847 93.0933 29.5176 92.3061 29.0288C91.5272 28.5399 90.6075 28.2955 89.5469 28.2955C88.3786 28.2955 87.3677 28.5855 86.5142 29.1655C85.669 29.7372 85.0186 30.483 84.5629 31.4027C84.1071 32.3224 83.8793 33.3085 83.8793 34.3608V36.0511C83.8793 37.4929 84.1278 38.7151 84.625 39.7177C85.1304 40.712 85.8306 41.4702 86.7255 41.9922C87.6204 42.5059 88.6603 42.7628 89.8452 42.7628C90.6158 42.7628 91.3118 42.6551 91.9332 42.4396C92.563 42.2159 93.1057 41.8845 93.5614 41.4453C94.0172 40.9979 94.3693 40.4427 94.6179 39.7798L97.4517 40.5753C97.1534 41.5365 96.6521 42.3816 95.9478 43.1108C95.2435 43.8317 94.3735 44.3951 93.3377 44.8011C92.302 45.1989 91.1378 45.3977 89.8452 45.3977ZM105.145 19.5455V45H102.212V19.5455H105.145ZM118.522 45.3977C116.682 45.3977 115.096 44.9917 113.762 44.1797C112.436 43.3594 111.413 42.2159 110.692 40.7493C109.979 39.2744 109.623 37.5592 109.623 35.6037C109.623 33.6482 109.979 31.9247 110.692 30.4332C111.413 28.9335 112.415 27.7652 113.699 26.9283C114.992 26.0831 116.5 25.6605 118.224 25.6605C119.218 25.6605 120.2 25.8262 121.169 26.1577C122.139 26.4891 123.021 27.0277 123.817 27.7734C124.612 28.5109 125.246 29.4886 125.718 30.7067C126.191 31.9247 126.427 33.4245 126.427 35.206V36.4489H111.711V33.9134H123.444C123.444 32.8362 123.228 31.875 122.797 31.0298C122.375 30.1847 121.77 29.5176 120.983 29.0288C120.204 28.5399 119.284 28.2955 118.224 28.2955C117.055 28.2955 116.044 28.5855 115.191 29.1655C114.346 29.7372 113.695 30.483 113.24 31.4027C112.784 32.3224 112.556 33.3085 112.556 34.3608V36.0511C112.556 37.4929 112.805 38.7151 113.302 39.7177C113.807 40.712 114.507 41.4702 115.402 41.9922C116.297 42.5059 117.337 42.7628 118.522 42.7628C119.293 42.7628 119.989 42.6551 120.61 42.4396C121.24 42.2159 121.782 41.8845 122.238 41.4453C122.694 40.9979 123.046 40.4427 123.295 39.7798L126.128 40.5753C125.83 41.5365 125.329 42.3816 124.625 43.1108C123.92 43.8317 123.05 44.3951 122.014 44.8011C120.979 45.1989 119.815 45.3977 118.522 45.3977ZM139.191 25.9091V28.3949H129.298V25.9091H139.191ZM132.181 21.3352H135.115V39.5312C135.115 40.3598 135.235 40.9813 135.475 41.3956C135.724 41.8016 136.039 42.075 136.42 42.2159C136.809 42.3485 137.219 42.4148 137.65 42.4148C137.973 42.4148 138.238 42.3982 138.446 42.3651C138.653 42.3236 138.818 42.2905 138.943 42.2656L139.539 44.9006C139.34 44.9751 139.063 45.0497 138.707 45.1243C138.35 45.2071 137.899 45.2486 137.352 45.2486C136.523 45.2486 135.711 45.0704 134.916 44.7141C134.129 44.3578 133.474 43.8151 132.952 43.0859C132.438 42.3568 132.181 41.437 132.181 40.3267V21.3352ZM151.403 45.3977C149.563 45.3977 147.977 44.9917 146.642 44.1797C145.317 43.3594 144.293 42.2159 143.573 40.7493C142.86 39.2744 142.504 37.5592 142.504 35.6037C142.504 33.6482 142.86 31.9247 143.573 30.4332C144.293 28.9335 145.296 27.7652 146.58 26.9283C147.873 26.0831 149.381 25.6605 151.104 25.6605C152.099 25.6605 153.081 25.8262 154.05 26.1577C155.02 26.4891 155.902 27.0277 156.698 27.7734C157.493 28.5109 158.127 29.4886 158.599 30.7067C159.071 31.9247 159.308 33.4245 159.308 35.206V36.4489H144.592V33.9134H156.325C156.325 32.8362 156.109 31.875 155.678 31.0298C155.256 30.1847 154.651 29.5176 153.864 29.0288C153.085 28.5399 152.165 28.2955 151.104 28.2955C149.936 28.2955 148.925 28.5855 148.072 29.1655C147.227 29.7372 146.576 30.483 146.12 31.4027C145.665 32.3224 145.437 33.3085 145.437 34.3608V36.0511C145.437 37.4929 145.685 38.7151 146.183 39.7177C146.688 40.712 147.388 41.4702 148.283 41.9922C149.178 42.5059 150.218 42.7628 151.403 42.7628C152.173 42.7628 152.869 42.6551 153.491 42.4396C154.121 42.2159 154.663 41.8845 155.119 41.4453C155.575 40.9979 155.927 40.4427 156.176 39.7798L159.009 40.5753C158.711 41.5365 158.21 42.3816 157.505 43.1108C156.801 43.8317 155.931 44.3951 154.895 44.8011C153.86 45.1989 152.695 45.3977 151.403 45.3977Z" fill="white"/>
<defs>
<filter id="filter0_d_3_97" x="0.012146" y="0.822296" width="210.462" height="74.3077" filterUnits="userSpaceOnUse" color-interpolation-filters="sRGB">
<feFlood flood-opacity="0" result="BackgroundImageFix"/>
<feColorMatrix in="SourceAlpha" type="matrix" values="0 0 0 0 0 0 0 0 0 0 0 0 0 0 0 0 0 0 127 0" result="hardAlpha"/>
<feMorphology radius="1" operator="dilate" in="SourceAlpha" result="effect1_dropShadow_3_97"/>
<feOffset dy="4"/>
<feGaussianBlur stdDeviation="5"/>
<feComposite in2="hardAlpha" operator="out"/>
<feColorMatrix type="matrix" values="0 0 0 0 1 0 0 0 0 1 0 0 0 0 1 0 0 0 0.37 0"/>
<feBlend mode="normal" in2="BackgroundImageFix" result="effect1_dropShadow_3_97"/>
<feBlend mode="normal" in="SourceGraphic" in2="effect1_dropShadow_3_97" result="shape"/>
</filter>
</defs>
</svg>
