<svg width="211" height="76" viewBox="0 0 211 76" fill="none" xmlns="http://www.w3.org/2000/svg">
<g filter="url(#filter0_d_25_24)">
<rect x="11" y="7.82233" width="188.462" height="52.3077" rx="26.1538" fill="#91B7EF"/>
<rect x="12" y="8.82233" width="186.462" height="50.3077" rx="25.1538" stroke="#8995FF" stroke-width="2"/>
</g>
<path d="M64.9254 45H57.0702V19.5455H65.2734C67.7426 19.5455 69.8555 20.0551 71.6121 21.0742C73.3688 22.0851 74.7152 23.5393 75.6516 25.4368C76.5879 27.326 77.056 29.5881 77.056 32.223C77.056 34.8746 76.5837 37.1573 75.6391 39.0714C74.6945 40.9772 73.3191 42.4438 71.5127 43.4713C69.7064 44.4904 67.5106 45 64.9254 45ZM60.1526 42.2657H64.7265C66.8311 42.2657 68.5753 41.8596 69.9591 41.0476C71.3428 40.2356 72.3745 39.0797 73.0539 37.5799C73.7334 36.0802 74.0731 34.2945 74.0731 32.223C74.0731 30.1681 73.7375 28.3991 73.0663 26.9159C72.3952 25.4244 71.3926 24.2809 70.0585 23.4855C68.7245 22.6817 67.0631 22.2799 65.0745 22.2799H60.1526V42.2657ZM89.833 45.3978C87.9935 45.3978 86.4068 44.9917 85.0727 44.1797C83.747 43.3594 82.7236 42.2159 82.0028 40.7493C81.2902 39.2744 80.9339 37.5592 80.9339 35.6037C80.9339 33.6482 81.2902 31.9247 82.0028 30.4333C82.7236 28.9335 83.7263 27.7652 85.0106 26.9283C86.3032 26.0831 87.8112 25.6605 89.5347 25.6605C90.529 25.6605 91.5109 25.8263 92.4804 26.1577C93.4499 26.4891 94.3323 27.0277 95.1278 27.7735C95.9232 28.5109 96.5571 29.4887 97.0294 30.7067C97.5017 31.9247 97.7379 33.4245 97.7379 35.206V36.4489H83.0219V33.9134H94.7549C94.7549 32.8362 94.5395 31.875 94.1086 31.0299C93.686 30.1847 93.0811 29.5177 92.294 29.0288C91.5151 28.5399 90.5953 28.2955 89.5347 28.2955C88.3664 28.2955 87.3555 28.5855 86.5021 29.1655C85.6569 29.7372 85.0064 30.483 84.5507 31.4027C84.095 32.3225 83.8671 33.3085 83.8671 34.3608V36.0512C83.8671 37.4929 84.1157 38.7151 84.6129 39.7177C85.1183 40.712 85.8185 41.4702 86.7134 41.9922C87.6082 42.5059 88.6481 42.7628 89.833 42.7628C90.6036 42.7628 91.2996 42.6551 91.9211 42.4397C92.5508 42.2159 93.0936 41.8845 93.5493 41.4453C94.005 40.9979 94.3572 40.4427 94.6058 39.7799L97.4396 40.5753C97.1413 41.5365 96.64 42.3817 95.9357 43.1108C95.2313 43.8317 94.3613 44.3952 93.3256 44.8012C92.2898 45.1989 91.1256 45.3978 89.833 45.3978ZM105.133 19.5455V45H102.2V19.5455H105.133ZM118.51 45.3978C116.67 45.3978 115.084 44.9917 113.749 44.1797C112.424 43.3594 111.4 42.2159 110.68 40.7493C109.967 39.2744 109.611 37.5592 109.611 35.6037C109.611 33.6482 109.967 31.9247 110.68 30.4333C111.4 28.9335 112.403 27.7652 113.687 26.9283C114.98 26.0831 116.488 25.6605 118.211 25.6605C119.206 25.6605 120.188 25.8263 121.157 26.1577C122.127 26.4891 123.009 27.0277 123.805 27.7735C124.6 28.5109 125.234 29.4887 125.706 30.7067C126.178 31.9247 126.415 33.4245 126.415 35.206V36.4489H111.699V33.9134H123.432C123.432 32.8362 123.216 31.875 122.785 31.0299C122.363 30.1847 121.758 29.5177 120.971 29.0288C120.192 28.5399 119.272 28.2955 118.211 28.2955C117.043 28.2955 116.032 28.5855 115.179 29.1655C114.334 29.7372 113.683 30.483 113.227 31.4027C112.772 32.3225 112.544 33.3085 112.544 34.3608V36.0512C112.544 37.4929 112.792 38.7151 113.29 39.7177C113.795 40.712 114.495 41.4702 115.39 41.9922C116.285 42.5059 117.325 42.7628 118.51 42.7628C119.28 42.7628 119.976 42.6551 120.598 42.4397C121.228 42.2159 121.77 41.8845 122.226 41.4453C122.682 40.9979 123.034 40.4427 123.283 39.7799L126.116 40.5753C125.818 41.5365 125.317 42.3817 124.612 43.1108C123.908 43.8317 123.038 44.3952 122.002 44.8012C120.967 45.1989 119.802 45.3978 118.51 45.3978ZM139.179 25.9091V28.3949H129.286V25.9091H139.179ZM132.169 21.3353H135.102V39.5313C135.102 40.3599 135.223 40.9813 135.463 41.3956C135.711 41.8016 136.026 42.0751 136.408 42.2159C136.797 42.3485 137.207 42.4148 137.638 42.4148C137.961 42.4148 138.226 42.3982 138.433 42.3651C138.641 42.3237 138.806 42.2905 138.931 42.2657L139.527 44.9006C139.328 44.9752 139.051 45.0497 138.694 45.1243C138.338 45.2072 137.887 45.2486 137.34 45.2486C136.511 45.2486 135.699 45.0705 134.904 44.7142C134.116 44.3579 133.462 43.8151 132.94 43.086C132.426 42.3568 132.169 41.4371 132.169 40.3267V21.3353ZM151.391 45.3978C149.551 45.3978 147.964 44.9917 146.63 44.1797C145.305 43.3594 144.281 42.2159 143.56 40.7493C142.848 39.2744 142.491 37.5592 142.491 35.6037C142.491 33.6482 142.848 31.9247 143.56 30.4333C144.281 28.9335 145.284 27.7652 146.568 26.9283C147.861 26.0831 149.369 25.6605 151.092 25.6605C152.087 25.6605 153.069 25.8263 154.038 26.1577C155.007 26.4891 155.89 27.0277 156.685 27.7735C157.481 28.5109 158.115 29.4887 158.587 30.7067C159.059 31.9247 159.295 33.4245 159.295 35.206V36.4489H144.58V33.9134H156.313C156.313 32.8362 156.097 31.875 155.666 31.0299C155.244 30.1847 154.639 29.5177 153.852 29.0288C153.073 28.5399 152.153 28.2955 151.092 28.2955C149.924 28.2955 148.913 28.5855 148.06 29.1655C147.215 29.7372 146.564 30.483 146.108 31.4027C145.653 32.3225 145.425 33.3085 145.425 34.3608V36.0512C145.425 37.4929 145.673 38.7151 146.17 39.7177C146.676 40.712 147.376 41.4702 148.271 41.9922C149.166 42.5059 150.206 42.7628 151.391 42.7628C152.161 42.7628 152.857 42.6551 153.479 42.4397C154.108 42.2159 154.651 41.8845 155.107 41.4453C155.563 40.9979 155.915 40.4427 156.163 39.7799L158.997 40.5753C158.699 41.5365 158.198 42.3817 157.493 43.1108C156.789 43.8317 155.919 44.3952 154.883 44.8012C153.847 45.1989 152.683 45.3978 151.391 45.3978Z" fill="black"/>
<defs>
<filter id="filter0_d_25_24" x="0" y="0.822327" width="210.462" height="74.3077" filterUnits="userSpaceOnUse" color-interpolation-filters="sRGB">
<feFlood flood-opacity="0" result="BackgroundImageFix"/>
<feColorMatrix in="SourceAlpha" type="matrix" values="0 0 0 0 0 0 0 0 0 0 0 0 0 0 0 0 0 0 127 0" result="hardAlpha"/>
<feMorphology radius="1" operator="dilate" in="SourceAlpha" result="effect1_dropShadow_25_24"/>
<feOffset dy="4"/>
<feGaussianBlur stdDeviation="5"/>
<feComposite in2="hardAlpha" operator="out"/>
<feColorMatrix type="matrix" values="0 0 0 0 1 0 0 0 0 1 0 0 0 0 1 0 0 0 0.37 0"/>
<feBlend mode="normal" in2="BackgroundImageFix" result="effect1_dropShadow_25_24"/>
<feBlend mode="normal" in="SourceGraphic" in2="effect1_dropShadow_25_24" result="shape"/>
</filter>
</defs>
</svg>
