<svg width="40" height="40" viewBox="0 0 40 40" fill="none" xmlns="http://www.w3.org/2000/svg">
<circle cx="20" cy="20" r="19.4737" fill="#FFF9F9" fill-opacity="0.15"/>
<path d="M5.82669 19.4933C5.82669 19.1733 5.93335 18.8933 6.16002 18.6667C6.38669 18.4533 6.66669 18.3467 6.96002 18.3467H9.68002C9.98669 18.3467 10.24 18.4533 10.4534 18.68C10.6534 18.9067 10.76 19.1733 10.76 19.4933C10.76 19.8133 10.6667 20.08 10.4667 20.3067C10.2667 20.5333 10 20.64 9.69335 20.64H6.97335C6.66669 20.64 6.40002 20.5333 6.17335 20.3067C6.0629 20.2021 5.97513 20.076 5.91549 19.936C5.85586 19.7961 5.82563 19.6454 5.82669 19.4933V19.4933ZM9.64002 28.7333C9.64002 28.4267 9.74669 28.16 9.94669 27.92L11.9067 26.0133C12.1067 25.8 12.3734 25.7067 12.6934 25.7067C13.0134 25.7067 13.28 25.8133 13.4934 26.0133C13.7067 26.2133 13.8134 26.4667 13.8134 26.7733C13.8134 27.0933 13.7067 27.3867 13.4934 27.6267L11.6 29.52C11.0534 29.9467 10.5067 29.9467 9.96002 29.52C9.8561 29.4175 9.77414 29.2948 9.71913 29.1596C9.66411 29.0243 9.6372 28.8793 9.64002 28.7333V28.7333ZM9.64002 10.28C9.64002 9.97334 9.74669 9.70668 9.94669 9.46668C10.2134 9.24001 10.4934 9.13334 10.8 9.13334C11.0934 9.13334 11.36 9.24001 11.5867 9.45334L13.4934 11.4133C13.7067 11.6133 13.8134 11.88 13.8134 12.2C13.8134 12.52 13.7067 12.7867 13.4934 13C13.28 13.2133 13.0134 13.32 12.6934 13.32C12.3734 13.32 12.1067 13.2133 11.9067 13L9.96002 11.0933C9.8547 10.9863 9.77207 10.8591 9.71709 10.7193C9.6621 10.5796 9.63589 10.4301 9.64002 10.28V10.28ZM13.04 19.4933C13.04 18.2533 13.3467 17.0933 13.9734 16.0267C14.6 14.96 15.44 14.1067 16.52 13.48C17.6 12.8533 18.7467 12.5467 19.9867 12.5467C20.92 12.5467 21.8134 12.7333 22.68 13.1067C23.5334 13.48 24.28 13.9733 24.8934 14.6C25.52 15.2267 26.0134 15.96 26.3734 16.8133C26.7334 17.6667 26.92 18.5733 26.92 19.5067C26.92 20.76 26.6134 21.92 25.9867 22.9867C25.36 24.0533 24.52 24.8933 23.4534 25.52C22.3867 26.1467 21.2267 26.4533 19.9734 26.4533C18.72 26.4533 17.56 26.1467 16.4934 25.52C15.4267 24.8933 14.5867 24.0533 13.96 22.9867C13.36 21.9067 13.04 20.7467 13.04 19.4933V19.4933ZM18.8534 29.8667C18.8534 29.5467 18.96 29.28 19.1867 29.0667C19.4134 28.8533 19.68 28.7467 19.9867 28.7467C20.3067 28.7467 20.5867 28.8533 20.8 29.0667C21.0134 29.28 21.12 29.5467 21.12 29.8667V32.52C21.12 32.84 21.0134 33.12 20.7867 33.3467C20.56 33.5733 20.2934 33.68 19.9867 33.68C19.68 33.68 19.4 33.5733 19.1867 33.3467C19.0778 33.2388 18.9921 33.1099 18.9348 32.9677C18.8775 32.8256 18.8498 32.6732 18.8534 32.52V29.8667ZM18.8534 9.20001V6.48001C18.8534 6.17334 18.96 5.90668 19.1867 5.68001C19.4134 5.45334 19.68 5.33334 20 5.33334C20.32 5.33334 20.5734 5.44001 20.8 5.66668C21.0267 5.89334 21.1334 6.16001 21.1334 6.46668V9.20001C21.1334 9.50668 21.0267 9.76001 20.8 9.97334C20.5734 10.1867 20.3067 10.28 20 10.28C19.6934 10.28 19.4134 10.1733 19.2 9.97334C18.9867 9.77334 18.8534 9.50668 18.8534 9.20001V9.20001ZM19 14.96C20.16 15.1067 21.1334 15.6133 21.92 16.4933C22.7067 17.3733 23.1067 18.4133 23.1067 19.6C23.1067 20.7067 22.76 21.68 22.0667 22.5333C21.3734 23.3733 20.4934 23.92 19.4267 24.1467C19.6934 24.1733 19.8934 24.2 20.0134 24.2C21.3067 24.2 22.4267 23.7333 23.3467 22.8133C24.2667 21.8933 24.7334 20.7867 24.7334 19.48C24.7334 18.2 24.2667 17.1067 23.3467 16.1867C22.4267 15.28 21.32 14.8267 20.0134 14.8267C19.6534 14.8533 19.32 14.8933 19 14.96V14.96ZM26.2134 26.7733C26.2134 26.4667 26.32 26.2133 26.52 26.0267C26.72 25.8133 26.9734 25.72 27.2667 25.72C27.5867 25.72 27.8534 25.8267 28.0667 26.0267L30.0134 27.9333C30.2267 28.16 30.3334 28.44 30.3334 28.7467C30.3334 29.0533 30.2267 29.32 30.0134 29.5333C29.48 29.9467 28.9467 29.9467 28.4134 29.5333L26.52 27.64C26.3155 27.3982 26.2065 27.09 26.2134 26.7733ZM26.2134 12.2133C26.2134 11.88 26.32 11.6133 26.52 11.4267L28.4134 9.46668C28.6234 9.26087 28.906 9.14594 29.2 9.14668C29.52 9.14668 29.7867 9.25334 30 9.48001C30.2267 9.70668 30.3334 9.97334 30.3334 10.28C30.3334 10.6133 30.2267 10.8933 30.0134 11.1067L28.0667 13.0133C27.8267 13.2267 27.56 13.3333 27.2667 13.3333C26.96 13.3333 26.72 13.2267 26.52 13.0133C26.32 12.8 26.2134 12.5333 26.2134 12.2133V12.2133ZM29.2267 19.4933C29.2267 19.1733 29.3334 18.9067 29.5467 18.6667C29.76 18.4533 30.0134 18.3467 30.3067 18.3467H33C33.3067 18.3467 33.5734 18.4667 33.8 18.6933C34.0267 18.92 34.1467 19.1867 34.1467 19.4933C34.1467 19.8 34.0267 20.0667 33.8 20.2933C33.5734 20.52 33.3067 20.6267 33 20.6267H30.3067C30 20.6267 29.7334 20.52 29.5334 20.2933C29.3334 20.0667 29.2267 19.8133 29.2267 19.4933Z" fill="white"/>
</svg>
