<svg width="75" height="75" viewBox="0 0 75 75" fill="none" xmlns="http://www.w3.org/2000/svg">
<g filter="url(#filter0_d_3_96)">
<rect x="11" y="7" width="52.1092" height="52.1092" rx="26.0546" fill="#390000"/>
<rect x="12" y="8" width="50.1092" height="50.1092" rx="25.0546" stroke="#010042" stroke-width="2"/>
</g>
<path d="M26.25 34.75C25.6533 34.75 25.081 34.5129 24.659 34.091C24.2371 33.669 24 33.0967 24 32.5C24 31.9033 24.2371 31.331 24.659 30.909C25.081 30.4871 25.6533 30.25 26.25 30.25H48.75C49.3467 30.25 49.919 30.4871 50.341 30.909C50.7629 31.331 51 31.9033 51 32.5C51 33.0967 50.7629 33.669 50.341 34.091C49.919 34.5129 49.3467 34.75 48.75 34.75H26.25Z" fill="white"/>
<path d="M37.5 25.75C39.364 25.75 40.875 24.239 40.875 22.375C40.875 20.511 39.364 19 37.5 19C35.636 19 34.125 20.511 34.125 22.375C34.125 24.239 35.636 25.75 37.5 25.75Z" fill="white"/>
<path d="M37.5 46C39.364 46 40.875 44.489 40.875 42.625C40.875 40.761 39.364 39.25 37.5 39.25C35.636 39.25 34.125 40.761 34.125 42.625C34.125 44.489 35.636 46 37.5 46Z" fill="white"/>
<defs>
<filter id="filter0_d_3_96" x="0" y="0" width="74.1093" height="74.1092" filterUnits="userSpaceOnUse" color-interpolation-filters="sRGB">
<feFlood flood-opacity="0" result="BackgroundImageFix"/>
<feColorMatrix in="SourceAlpha" type="matrix" values="0 0 0 0 0 0 0 0 0 0 0 0 0 0 0 0 0 0 127 0" result="hardAlpha"/>
<feMorphology radius="1" operator="dilate" in="SourceAlpha" result="effect1_dropShadow_3_96"/>
<feOffset dy="4"/>
<feGaussianBlur stdDeviation="5"/>
<feComposite in2="hardAlpha" operator="out"/>
<feColorMatrix type="matrix" values="0 0 0 0 1 0 0 0 0 1 0 0 0 0 1 0 0 0 0.37 0"/>
<feBlend mode="normal" in2="BackgroundImageFix" result="effect1_dropShadow_3_96"/>
<feBlend mode="normal" in="SourceGraphic" in2="effect1_dropShadow_3_96" result="shape"/>
</filter>
</defs>
</svg>
