<svg width="76" height="75" viewBox="0 0 76 75" fill="none" xmlns="http://www.w3.org/2000/svg">
<g filter="url(#filter0_d_25_74)">
<rect x="11.9878" y="7.00003" width="52.1092" height="52.1092" rx="26.0546" fill="#91B7EF"/>
<rect x="12.9878" y="8.00003" width="50.1092" height="50.1092" rx="25.0546" stroke="#8995FF" stroke-width="2"/>
</g>
<path d="M27.2378 34.75C26.6411 34.75 26.0688 34.513 25.6468 34.091C25.2249 33.6691 24.9878 33.0968 24.9878 32.5C24.9878 31.9033 25.2249 31.331 25.6468 30.909C26.0688 30.4871 26.6411 30.25 27.2378 30.25H49.7378C50.3346 30.25 50.9069 30.4871 51.3288 30.909C51.7508 31.331 51.9878 31.9033 51.9878 32.5C51.9878 33.0968 51.7508 33.6691 51.3288 34.091C50.9069 34.513 50.3346 34.75 49.7378 34.75H27.2378Z" fill="black"/>
<path d="M38.4878 25.75C40.3518 25.75 41.8628 24.239 41.8628 22.375C41.8628 20.5111 40.3518 19 38.4878 19C36.6239 19 35.1128 20.5111 35.1128 22.375C35.1128 24.239 36.6239 25.75 38.4878 25.75Z" fill="black"/>
<path d="M38.4878 46C40.3518 46 41.8628 44.489 41.8628 42.625C41.8628 40.7611 40.3518 39.25 38.4878 39.25C36.6239 39.25 35.1128 40.7611 35.1128 42.625C35.1128 44.489 36.6239 46 38.4878 46Z" fill="black"/>
<defs>
<filter id="filter0_d_25_74" x="0.987823" y="3.05176e-05" width="74.1093" height="74.1092" filterUnits="userSpaceOnUse" color-interpolation-filters="sRGB">
<feFlood flood-opacity="0" result="BackgroundImageFix"/>
<feColorMatrix in="SourceAlpha" type="matrix" values="0 0 0 0 0 0 0 0 0 0 0 0 0 0 0 0 0 0 127 0" result="hardAlpha"/>
<feMorphology radius="1" operator="dilate" in="SourceAlpha" result="effect1_dropShadow_25_74"/>
<feOffset dy="4"/>
<feGaussianBlur stdDeviation="5"/>
<feComposite in2="hardAlpha" operator="out"/>
<feColorMatrix type="matrix" values="0 0 0 0 1 0 0 0 0 1 0 0 0 0 1 0 0 0 0.37 0"/>
<feBlend mode="normal" in2="BackgroundImageFix" result="effect1_dropShadow_25_74"/>
<feBlend mode="normal" in="SourceGraphic" in2="effect1_dropShadow_25_74" result="shape"/>
</filter>
</defs>
</svg>
