<svg width="75" height="75" viewBox="0 0 75 75" fill="none" xmlns="http://www.w3.org/2000/svg">
<g filter="url(#filter0_d_3_115)">
<rect x="11.1003" y="7.81079" width="52.1092" height="52.1092" rx="26.0546" fill="#390000"/>
<rect x="12.1003" y="8.81079" width="50.1092" height="50.1092" rx="25.0546" stroke="#010042" stroke-width="2"/>
</g>
<path d="M28.0114 47V44.4432L37.6136 33.9318C38.7405 32.7008 39.6686 31.6307 40.3977 30.7216C41.1269 29.803 41.6667 28.9413 42.017 28.1364C42.3769 27.322 42.5568 26.4697 42.5568 25.5795C42.5568 24.5568 42.3106 23.6714 41.8182 22.9233C41.3352 22.1752 40.6723 21.5975 39.8295 21.1903C38.9867 20.7831 38.0398 20.5795 36.9886 20.5795C35.8712 20.5795 34.8958 20.8116 34.0625 21.2756C33.2386 21.7301 32.5994 22.3693 32.1449 23.1932C31.6998 24.017 31.4773 24.983 31.4773 26.0909H28.125C28.125 24.3864 28.518 22.8902 29.304 21.6023C30.09 20.3144 31.16 19.3106 32.5142 18.5909C33.8778 17.8712 35.4072 17.5114 37.1023 17.5114C38.8068 17.5114 40.3172 17.8712 41.6335 18.5909C42.9498 19.3106 43.982 20.2812 44.7301 21.5028C45.4782 22.7244 45.8523 24.0833 45.8523 25.5795C45.8523 26.6496 45.6581 27.696 45.2699 28.7188C44.8911 29.732 44.2282 30.8636 43.2812 32.1136C42.3438 33.3542 41.0417 34.8693 39.375 36.6591L32.8409 43.6477V43.875H46.3636V47H28.0114Z" fill="white"/>
<defs>
<filter id="filter0_d_3_115" x="0.100281" y="0.810791" width="74.1093" height="74.1093" filterUnits="userSpaceOnUse" color-interpolation-filters="sRGB">
<feFlood flood-opacity="0" result="BackgroundImageFix"/>
<feColorMatrix in="SourceAlpha" type="matrix" values="0 0 0 0 0 0 0 0 0 0 0 0 0 0 0 0 0 0 127 0" result="hardAlpha"/>
<feMorphology radius="1" operator="dilate" in="SourceAlpha" result="effect1_dropShadow_3_115"/>
<feOffset dy="4"/>
<feGaussianBlur stdDeviation="5"/>
<feComposite in2="hardAlpha" operator="out"/>
<feColorMatrix type="matrix" values="0 0 0 0 1 0 0 0 0 1 0 0 0 0 1 0 0 0 0.37 0"/>
<feBlend mode="normal" in2="BackgroundImageFix" result="effect1_dropShadow_3_115"/>
<feBlend mode="normal" in="SourceGraphic" in2="effect1_dropShadow_3_115" result="shape"/>
</filter>
</defs>
</svg>
