<svg width="75" height="75" viewBox="0 0 75 75" fill="none" xmlns="http://www.w3.org/2000/svg">
<g filter="url(#filter0_d_25_33)">
<rect x="11.1355" y="7.71625" width="52.1092" height="52.1092" rx="26.0546" fill="#91B7EF"/>
<rect x="12.1355" y="8.71625" width="50.1092" height="50.1092" rx="25.0546" stroke="#8995FF" stroke-width="2"/>
</g>
<path d="M24.7378 28.75C24.2737 28.75 23.8286 28.9344 23.5004 29.2626C23.1722 29.5908 22.9878 30.0359 22.9878 30.5C22.9878 30.9642 23.1722 31.4093 23.5004 31.7375C23.8286 32.0657 24.2737 32.25 24.7378 32.25H49.2378C49.702 32.25 50.1471 32.0657 50.4753 31.7375C50.8035 31.4093 50.9878 30.9642 50.9878 30.5C50.9878 30.0359 50.8035 29.5908 50.4753 29.2626C50.1471 28.9344 49.702 28.75 49.2378 28.75H24.7378ZM24.7378 35.75C24.2737 35.75 23.8286 35.9344 23.5004 36.2626C23.1722 36.5908 22.9878 37.0359 22.9878 37.5C22.9878 37.9642 23.1722 38.4093 23.5004 38.7375C23.8286 39.0657 24.2737 39.25 24.7378 39.25H49.2378C49.702 39.25 50.1471 39.0657 50.4753 38.7375C50.8035 38.4093 50.9878 37.9642 50.9878 37.5C50.9878 37.0359 50.8035 36.5908 50.4753 36.2626C50.1471 35.9344 49.702 35.75 49.2378 35.75H24.7378Z" fill="black"/>
<defs>
<filter id="filter0_d_25_33" x="0.135468" y="0.716248" width="74.1093" height="74.1093" filterUnits="userSpaceOnUse" color-interpolation-filters="sRGB">
<feFlood flood-opacity="0" result="BackgroundImageFix"/>
<feColorMatrix in="SourceAlpha" type="matrix" values="0 0 0 0 0 0 0 0 0 0 0 0 0 0 0 0 0 0 127 0" result="hardAlpha"/>
<feMorphology radius="1" operator="dilate" in="SourceAlpha" result="effect1_dropShadow_25_33"/>
<feOffset dy="4"/>
<feGaussianBlur stdDeviation="5"/>
<feComposite in2="hardAlpha" operator="out"/>
<feColorMatrix type="matrix" values="0 0 0 0 1 0 0 0 0 1 0 0 0 0 1 0 0 0 0.37 0"/>
<feBlend mode="normal" in2="BackgroundImageFix" result="effect1_dropShadow_25_33"/>
<feBlend mode="normal" in="SourceGraphic" in2="effect1_dropShadow_25_33" result="shape"/>
</filter>
</defs>
</svg>
