<svg width="75" height="75" viewBox="0 0 75 75" fill="none" xmlns="http://www.w3.org/2000/svg">
<g filter="url(#filter0_d_3_106)">
<rect x="11.1476" y="7.71622" width="52.1092" height="52.1092" rx="26.0546" fill="#390000"/>
<rect x="12.1476" y="8.71622" width="50.1092" height="50.1092" rx="25.0546" stroke="#010042" stroke-width="2"/>
</g>
<path d="M24.75 28.75C24.2859 28.75 23.8408 28.9344 23.5126 29.2626C23.1844 29.5908 23 30.0359 23 30.5C23 30.9641 23.1844 31.4092 23.5126 31.7374C23.8408 32.0656 24.2859 32.25 24.75 32.25H49.25C49.7141 32.25 50.1592 32.0656 50.4874 31.7374C50.8156 31.4092 51 30.9641 51 30.5C51 30.0359 50.8156 29.5908 50.4874 29.2626C50.1592 28.9344 49.7141 28.75 49.25 28.75H24.75ZM24.75 35.75C24.2859 35.75 23.8408 35.9344 23.5126 36.2626C23.1844 36.5908 23 37.0359 23 37.5C23 37.9641 23.1844 38.4092 23.5126 38.7374C23.8408 39.0656 24.2859 39.25 24.75 39.25H49.25C49.7141 39.25 50.1592 39.0656 50.4874 38.7374C50.8156 38.4092 51 37.9641 51 37.5C51 37.0359 50.8156 36.5908 50.4874 36.2626C50.1592 35.9344 49.7141 35.75 49.25 35.75H24.75Z" fill="white"/>
<defs>
<filter id="filter0_d_3_106" x="0.147644" y="0.716217" width="74.1093" height="74.1093" filterUnits="userSpaceOnUse" color-interpolation-filters="sRGB">
<feFlood flood-opacity="0" result="BackgroundImageFix"/>
<feColorMatrix in="SourceAlpha" type="matrix" values="0 0 0 0 0 0 0 0 0 0 0 0 0 0 0 0 0 0 127 0" result="hardAlpha"/>
<feMorphology radius="1" operator="dilate" in="SourceAlpha" result="effect1_dropShadow_3_106"/>
<feOffset dy="4"/>
<feGaussianBlur stdDeviation="5"/>
<feComposite in2="hardAlpha" operator="out"/>
<feColorMatrix type="matrix" values="0 0 0 0 1 0 0 0 0 1 0 0 0 0 1 0 0 0 0.37 0"/>
<feBlend mode="normal" in2="BackgroundImageFix" result="effect1_dropShadow_3_106"/>
<feBlend mode="normal" in="SourceGraphic" in2="effect1_dropShadow_3_106" result="shape"/>
</filter>
</defs>
</svg>
