<svg width="75" height="75" viewBox="0 0 75 75" fill="none" xmlns="http://www.w3.org/2000/svg">
<g filter="url(#filter0_d_3_96)">
<rect x="11.1476" y="6.99997" width="52.1092" height="52.1092" rx="26.0546" fill="#390000"/>
<rect x="12.1476" y="7.99997" width="50.1092" height="50.1092" rx="25.0546" stroke="#010042" stroke-width="2"/>
</g>
<path d="M37.6216 19.4699C38.8148 19.4794 40.008 19.7067 41.2012 20.1517C42.3943 20.5968 43.4833 21.3354 44.4682 22.3676C45.453 23.3904 46.2438 24.7872 46.8404 26.558C47.4369 28.3288 47.7352 30.5495 47.7352 33.2199C47.7352 35.8051 47.489 38.1015 46.9966 40.1091C46.5136 42.1072 45.8129 43.7928 44.8943 45.1659C43.9852 46.539 42.8773 47.5807 41.5705 48.2909C40.2731 49.0012 38.8053 49.3563 37.1671 49.3563C35.5383 49.3563 34.0847 49.0343 32.8063 48.3904C31.5373 47.737 30.4957 46.8326 29.6813 45.6773C28.8763 44.5125 28.3602 43.1631 28.133 41.629H31.5989C31.9114 42.9642 32.5316 44.0675 33.4597 44.9387C34.3972 45.8004 35.633 46.2313 37.1671 46.2313C39.4114 46.2313 41.1822 45.2512 42.4796 43.2909C43.7864 41.3307 44.4398 38.5608 44.4398 34.9813H44.2125C43.6822 35.7767 43.0525 36.4633 42.3233 37.0409C41.5941 37.6186 40.7845 38.0637 39.8943 38.3762C39.0042 38.6887 38.0572 38.8449 37.0534 38.8449C35.3868 38.8449 33.8574 38.433 32.4654 37.6091C31.0828 36.7758 29.9748 35.6347 29.1415 34.1858C28.3176 32.7275 27.9057 31.0608 27.9057 29.1858C27.9057 27.4055 28.3034 25.7767 29.0989 24.2995C29.9038 22.8127 31.0307 21.629 32.4796 20.7483C33.9379 19.8676 35.6519 19.4415 37.6216 19.4699ZM37.6216 22.5949C36.4284 22.5949 35.3536 22.8932 34.3972 23.4898C33.4502 24.0769 32.6974 24.8724 32.1387 25.8762C31.5894 26.8705 31.3148 27.9737 31.3148 29.1858C31.3148 30.3979 31.5799 31.5012 32.1102 32.4955C32.65 33.4803 33.3839 34.2663 34.3119 34.8534C35.2494 35.4311 36.3148 35.7199 37.508 35.7199C38.4076 35.7199 39.2457 35.5447 40.0222 35.1943C40.7987 34.8345 41.4758 34.3468 42.0534 33.7313C42.6405 33.1063 43.0998 32.4008 43.4313 31.6148C43.7627 30.8193 43.9284 29.9907 43.9284 29.129C43.9284 27.9926 43.6538 26.9273 43.1046 25.933C42.5648 24.9387 41.8167 24.1337 40.8602 23.5182C39.9133 22.9027 38.8337 22.5949 37.6216 22.5949Z" fill="white"/>
<defs>
<filter id="filter0_d_3_96" x="0.147644" y="-3.05176e-05" width="74.1093" height="74.1092" filterUnits="userSpaceOnUse" color-interpolation-filters="sRGB">
<feFlood flood-opacity="0" result="BackgroundImageFix"/>
<feColorMatrix in="SourceAlpha" type="matrix" values="0 0 0 0 0 0 0 0 0 0 0 0 0 0 0 0 0 0 127 0" result="hardAlpha"/>
<feMorphology radius="1" operator="dilate" in="SourceAlpha" result="effect1_dropShadow_3_96"/>
<feOffset dy="4"/>
<feGaussianBlur stdDeviation="5"/>
<feComposite in2="hardAlpha" operator="out"/>
<feColorMatrix type="matrix" values="0 0 0 0 1 0 0 0 0 1 0 0 0 0 1 0 0 0 0.37 0"/>
<feBlend mode="normal" in2="BackgroundImageFix" result="effect1_dropShadow_3_96"/>
<feBlend mode="normal" in="SourceGraphic" in2="effect1_dropShadow_3_96" result="shape"/>
</filter>
</defs>
</svg>
