<svg width="75" height="75" viewBox="0 0 75 75" fill="none" xmlns="http://www.w3.org/2000/svg">
<g filter="url(#filter0_d_25_71)">
<rect x="11.1355" y="7" width="52.1092" height="52.1092" rx="26.0546" fill="#91B7EF"/>
<rect x="12.1355" y="8" width="50.1092" height="50.1092" rx="25.0546" stroke="#8995FF" stroke-width="2"/>
</g>
<path d="M37.6094 19.4699C38.8026 19.4794 39.9958 19.7067 41.189 20.1518C42.3822 20.5968 43.4712 21.3355 44.456 22.3677C45.4409 23.3904 46.2316 24.7872 46.8282 26.558C47.4248 28.3288 47.7231 30.5495 47.7231 33.2199C47.7231 35.8052 47.4769 38.1016 46.9844 40.1092C46.5015 42.1073 45.8007 43.7929 44.8822 45.166C43.9731 46.5391 42.8651 47.5807 41.5583 48.291C40.2609 49.0012 38.7931 49.3563 37.1549 49.3563C35.5261 49.3563 34.0725 49.0343 32.7941 48.3904C31.5251 47.737 30.4835 46.8326 29.6691 45.6773C28.8642 44.5126 28.3481 43.1631 28.1208 41.629H31.5867C31.8992 42.9643 32.5195 44.0675 33.4475 44.9387C34.385 45.8004 35.6208 46.2313 37.1549 46.2313C39.3992 46.2313 41.17 45.2512 42.4674 43.291C43.7742 41.3307 44.4276 38.5609 44.4276 34.9813H44.2003C43.67 35.7768 43.0403 36.4633 42.3111 37.041C41.582 37.6186 40.7723 38.0637 39.8822 38.3762C38.992 38.6887 38.045 38.8449 37.0412 38.8449C35.3746 38.8449 33.8452 38.433 32.4532 37.6092C31.0706 36.7758 29.9626 35.6347 29.1293 34.1859C28.3055 32.7275 27.8935 31.0609 27.8935 29.1859C27.8935 27.4056 28.2912 25.7768 29.0867 24.2995C29.8916 22.8127 31.0185 21.629 32.4674 20.7484C33.9257 19.8677 35.6397 19.4415 37.6094 19.4699ZM37.6094 22.5949C36.4162 22.5949 35.3414 22.8932 34.385 23.4898C33.438 24.077 32.6852 24.8724 32.1265 25.8762C31.5772 26.8705 31.3026 27.9737 31.3026 29.1859C31.3026 30.398 31.5678 31.5012 32.0981 32.4955C32.6378 33.4804 33.3717 34.2663 34.2998 34.8535C35.2373 35.4311 36.3026 35.7199 37.4958 35.7199C38.3954 35.7199 39.2335 35.5448 40.01 35.1944C40.7865 34.8345 41.4636 34.3468 42.0412 33.7313C42.6284 33.1063 43.0876 32.4008 43.4191 31.6148C43.7505 30.8194 43.9162 29.9908 43.9162 29.129C43.9162 27.9927 43.6416 26.9273 43.0924 25.933C42.5526 24.9387 41.8045 24.1338 40.8481 23.5182C39.9011 22.9027 38.8215 22.5949 37.6094 22.5949Z" fill="black"/>
<defs>
<filter id="filter0_d_25_71" x="0.135468" y="0" width="74.1093" height="74.1092" filterUnits="userSpaceOnUse" color-interpolation-filters="sRGB">
<feFlood flood-opacity="0" result="BackgroundImageFix"/>
<feColorMatrix in="SourceAlpha" type="matrix" values="0 0 0 0 0 0 0 0 0 0 0 0 0 0 0 0 0 0 127 0" result="hardAlpha"/>
<feMorphology radius="1" operator="dilate" in="SourceAlpha" result="effect1_dropShadow_25_71"/>
<feOffset dy="4"/>
<feGaussianBlur stdDeviation="5"/>
<feComposite in2="hardAlpha" operator="out"/>
<feColorMatrix type="matrix" values="0 0 0 0 1 0 0 0 0 1 0 0 0 0 1 0 0 0 0.37 0"/>
<feBlend mode="normal" in2="BackgroundImageFix" result="effect1_dropShadow_25_71"/>
<feBlend mode="normal" in="SourceGraphic" in2="effect1_dropShadow_25_71" result="shape"/>
</filter>
</defs>
</svg>
