<svg width="75" height="75" viewBox="0 0 75 75" fill="none" xmlns="http://www.w3.org/2000/svg">
<g filter="url(#filter0_d_3_96)">
<rect x="11.1003" y="6.99997" width="52.1092" height="52.1092" rx="26.0546" fill="#390000"/>
<rect x="12.1003" y="7.99997" width="50.1092" height="50.1092" rx="25.0546" stroke="#010042" stroke-width="2"/>
</g>
<path d="M37.6309 49.3563C35.6802 49.3563 33.9567 49.0106 32.4605 48.3193C30.9737 47.6186 29.8137 46.6574 28.9804 45.4358C28.147 44.2048 27.7351 42.8033 27.7446 41.2313C27.7351 40.0002 27.9766 38.8639 28.469 37.8222C28.9614 36.7711 29.6338 35.8951 30.4861 35.1943C31.3478 34.4841 32.309 34.0343 33.3696 33.8449V33.6745C31.9775 33.3146 30.8696 32.5334 30.0457 31.3307C29.2218 30.1186 28.8146 28.7407 28.8241 27.1972C28.8146 25.7199 29.1887 24.3989 29.9463 23.2341C30.7039 22.0693 31.7455 21.1508 33.0713 20.4784C34.4065 19.8061 35.9264 19.4699 37.6309 19.4699C39.3165 19.4699 40.8222 19.8061 42.148 20.4784C43.4737 21.1508 44.5154 22.0693 45.273 23.2341C46.04 24.3989 46.4283 25.7199 46.4378 27.1972C46.4283 28.7407 46.0069 30.1186 45.1736 31.3307C44.3497 32.5334 43.2559 33.3146 41.8923 33.6745V33.8449C42.9434 34.0343 43.8904 34.4841 44.7332 35.1943C45.576 35.8951 46.2484 36.7711 46.7503 37.8222C47.2521 38.8639 47.5078 40.0002 47.5173 41.2313C47.5078 42.8033 47.0817 44.2048 46.2389 45.4358C45.4056 46.6574 44.2455 47.6186 42.7588 48.3193C41.2815 49.0106 39.5722 49.3563 37.6309 49.3563ZM37.6309 46.2313C38.9472 46.2313 40.0836 46.0182 41.04 45.5921C41.9965 45.1659 42.7351 44.5646 43.2559 43.7881C43.7768 43.0116 44.0419 42.1025 44.0514 41.0608C44.0419 39.9623 43.7578 38.9917 43.1991 38.1489C42.6404 37.3061 41.8781 36.6432 40.9122 36.1603C39.9557 35.6773 38.862 35.4358 37.6309 35.4358C36.3904 35.4358 35.2825 35.6773 34.3071 36.1603C33.3412 36.6432 32.5789 37.3061 32.0201 38.1489C31.4709 38.9917 31.201 39.9623 31.2105 41.0608C31.201 42.1025 31.452 43.0116 31.9633 43.7881C32.4842 44.5646 33.2275 45.1659 34.1934 45.5921C35.1593 46.0182 36.3052 46.2313 37.6309 46.2313ZM37.6309 32.4245C38.6726 32.4245 39.5959 32.2161 40.4008 31.7995C41.2152 31.3828 41.8544 30.8004 42.3184 30.0523C42.7825 29.3042 43.0192 28.4282 43.0287 27.4245C43.0192 26.4396 42.7872 25.5826 42.3326 24.8534C41.8781 24.1148 41.2484 23.5466 40.4434 23.1489C39.6385 22.7417 38.701 22.5381 37.6309 22.5381C36.5419 22.5381 35.5902 22.7417 34.7758 23.1489C33.9614 23.5466 33.3317 24.1148 32.8866 24.8534C32.4415 25.5826 32.2237 26.4396 32.2332 27.4245C32.2237 28.4282 32.4463 29.3042 32.9008 30.0523C33.3648 30.8004 34.004 31.3828 34.8184 31.7995C35.6328 32.2161 36.5703 32.4245 37.6309 32.4245Z" fill="white"/>
<defs>
<filter id="filter0_d_3_96" x="0.100281" y="-3.05176e-05" width="74.1093" height="74.1092" filterUnits="userSpaceOnUse" color-interpolation-filters="sRGB">
<feFlood flood-opacity="0" result="BackgroundImageFix"/>
<feColorMatrix in="SourceAlpha" type="matrix" values="0 0 0 0 0 0 0 0 0 0 0 0 0 0 0 0 0 0 127 0" result="hardAlpha"/>
<feMorphology radius="1" operator="dilate" in="SourceAlpha" result="effect1_dropShadow_3_96"/>
<feOffset dy="4"/>
<feGaussianBlur stdDeviation="5"/>
<feComposite in2="hardAlpha" operator="out"/>
<feColorMatrix type="matrix" values="0 0 0 0 1 0 0 0 0 1 0 0 0 0 1 0 0 0 0.37 0"/>
<feBlend mode="normal" in2="BackgroundImageFix" result="effect1_dropShadow_3_96"/>
<feBlend mode="normal" in="SourceGraphic" in2="effect1_dropShadow_3_96" result="shape"/>
</filter>
</defs>
</svg>
