<svg width="75" height="75" viewBox="0 0 75 75" fill="none" xmlns="http://www.w3.org/2000/svg">
<g filter="url(#filter0_d_25_68)">
<rect x="11.0881" y="7" width="52.1092" height="52.1092" rx="26.0546" fill="#91B7EF"/>
<rect x="12.0881" y="8" width="50.1092" height="50.1092" rx="25.0546" stroke="#8995FF" stroke-width="2"/>
</g>
<path d="M37.6188 49.3563C35.668 49.3563 33.9445 49.0107 32.4483 48.3194C30.9616 47.6186 29.8015 46.6574 28.9682 45.4359C28.1349 44.2048 27.7229 42.8033 27.7324 41.2313C27.7229 40.0003 27.9644 38.8639 28.4568 37.8222C28.9493 36.7711 29.6216 35.8951 30.4739 35.1944C31.3356 34.4842 32.2968 34.0343 33.3574 33.8449V33.6745C31.9654 33.3146 30.8574 32.5334 30.0335 31.3307C29.2097 30.1186 28.8025 28.7408 28.8119 27.1972C28.8025 25.7199 29.1765 24.3989 29.9341 23.2342C30.6917 22.0694 31.7333 21.1508 33.0591 20.4785C34.3943 19.8061 35.9142 19.4699 37.6188 19.4699C39.3044 19.4699 40.81 19.8061 42.1358 20.4785C43.4616 21.1508 44.5032 22.0694 45.2608 23.2342C46.0279 24.3989 46.4161 25.7199 46.4256 27.1972C46.4161 28.7408 45.9947 30.1186 45.1614 31.3307C44.3375 32.5334 43.2438 33.3146 41.8801 33.6745V33.8449C42.9313 34.0343 43.8782 34.4842 44.721 35.1944C45.5638 35.8951 46.2362 36.7711 46.7381 37.8222C47.24 38.8639 47.4957 40.0003 47.5051 41.2313C47.4957 42.8033 47.0695 44.2048 46.2267 45.4359C45.3934 46.6574 44.2333 47.6186 42.7466 48.3194C41.2693 49.0107 39.56 49.3563 37.6188 49.3563ZM37.6188 46.2313C38.935 46.2313 40.0714 46.0182 41.0279 45.5921C41.9843 45.166 42.7229 44.5646 43.2438 43.7881C43.7646 43.0116 44.0297 42.1025 44.0392 41.0609C44.0297 39.9624 43.7457 38.9917 43.1869 38.1489C42.6282 37.3061 41.8659 36.6432 40.9 36.1603C39.9436 35.6773 38.8498 35.4359 37.6188 35.4359C36.3782 35.4359 35.2703 35.6773 34.2949 36.1603C33.329 36.6432 32.5667 37.3061 32.008 38.1489C31.4587 38.9917 31.1888 39.9624 31.1983 41.0609C31.1888 42.1025 31.4398 43.0116 31.9511 43.7881C32.472 44.5646 33.2154 45.166 34.1813 45.5921C35.1472 46.0182 36.293 46.2313 37.6188 46.2313ZM37.6188 32.4245C38.6604 32.4245 39.5837 32.2162 40.3886 31.7995C41.203 31.3828 41.8422 30.8004 42.3063 30.0523C42.7703 29.3042 43.007 28.4283 43.0165 27.4245C43.007 26.4396 42.775 25.5826 42.3205 24.8535C41.8659 24.1148 41.2362 23.5467 40.4313 23.1489C39.6263 22.7417 38.6888 22.5381 37.6188 22.5381C36.5297 22.5381 35.578 22.7417 34.7636 23.1489C33.9493 23.5467 33.3195 24.1148 32.8744 24.8535C32.4294 25.5826 32.2116 26.4396 32.221 27.4245C32.2116 28.4283 32.4341 29.3042 32.8886 30.0523C33.3527 30.8004 33.9919 31.3828 34.8063 31.7995C35.6207 32.2162 36.5582 32.4245 37.6188 32.4245Z" fill="black"/>
<defs>
<filter id="filter0_d_25_68" x="0.0881042" y="0" width="74.1093" height="74.1092" filterUnits="userSpaceOnUse" color-interpolation-filters="sRGB">
<feFlood flood-opacity="0" result="BackgroundImageFix"/>
<feColorMatrix in="SourceAlpha" type="matrix" values="0 0 0 0 0 0 0 0 0 0 0 0 0 0 0 0 0 0 127 0" result="hardAlpha"/>
<feMorphology radius="1" operator="dilate" in="SourceAlpha" result="effect1_dropShadow_25_68"/>
<feOffset dy="4"/>
<feGaussianBlur stdDeviation="5"/>
<feComposite in2="hardAlpha" operator="out"/>
<feColorMatrix type="matrix" values="0 0 0 0 1 0 0 0 0 1 0 0 0 0 1 0 0 0 0.37 0"/>
<feBlend mode="normal" in2="BackgroundImageFix" result="effect1_dropShadow_25_68"/>
<feBlend mode="normal" in="SourceGraphic" in2="effect1_dropShadow_25_68" result="shape"/>
</filter>
</defs>
</svg>
