<svg width="40" height="40" viewBox="0 0 40 40" fill="none" xmlns="http://www.w3.org/2000/svg">
<ellipse cx="20.7792" cy="20.5263" rx="19.2208" ry="19.4737" fill="black" fill-opacity="0.15"/>
<g clip-path="url(#clip0_3_155)">
<path d="M32.2361 29.455C29.3791 29.4223 26.6093 28.454 24.3404 26.6946C22.0715 24.9353 20.4254 22.4794 19.648 19.6938C18.8705 16.9083 19.0036 13.9427 20.0272 11.2401C21.0507 8.53753 22.9099 6.24303 25.327 4.69943C24.1057 4.37777 22.8492 4.21351 21.5873 4.21054C17.5153 4.21054 13.6101 5.84942 10.7307 8.76666C7.85137 11.6839 6.23377 15.6405 6.23377 19.7661C6.23377 23.8917 7.85137 27.8483 10.7307 30.7655C13.6101 33.6828 17.5153 35.3217 21.5873 35.3217C23.8941 35.3195 26.17 34.784 28.2415 33.7557C30.3131 32.7275 32.1257 31.2338 33.5411 29.3883C33.1075 29.433 32.6719 29.4552 32.2361 29.455V29.455Z" fill="black"/>
</g>
<defs>
<clipPath id="clip0_3_155">
<rect width="39.4805" height="40" fill="white"/>
</clipPath>
</defs>
</svg>
