<svg width="75" height="76" viewBox="0 0 75 76" fill="none" xmlns="http://www.w3.org/2000/svg">
<g filter="url(#filter0_d_25_62)">
<rect x="11.1829" y="7.90543" width="52.1092" height="52.1092" rx="26.0546" fill="#91B7EF"/>
<rect x="12.1829" y="8.90543" width="50.1092" height="50.1092" rx="25.0546" stroke="#8995FF" stroke-width="2"/>
</g>
<path d="M44.325 20.9791C41.7139 23.5918 39.0982 26.2049 36.4898 28.818C33.8769 26.2063 31.264 23.5931 28.6501 20.9791C25.6267 17.9574 20.942 22.6438 23.9641 25.6655C26.5761 28.2759 29.1904 30.8904 31.7992 33.4999C29.1886 36.1116 26.5747 38.7257 23.9641 41.3388C20.942 44.3596 25.6289 49.0447 28.6501 46.0248C31.2621 43.4116 33.8751 40.799 36.4898 38.1859C39.1028 40.799 41.7139 43.4107 44.325 46.0248C47.3475 49.0451 52.0326 44.3596 49.0129 41.3392C46.3995 38.7261 43.7865 36.1144 41.1731 33.5003C43.787 30.8877 46.3999 28.2745 49.0129 25.6614C52.0326 22.6406 47.3475 17.9542 44.325 20.9759" fill="black"/>
<defs>
<filter id="filter0_d_25_62" x="0.182892" y="0.905426" width="74.1093" height="74.1092" filterUnits="userSpaceOnUse" color-interpolation-filters="sRGB">
<feFlood flood-opacity="0" result="BackgroundImageFix"/>
<feColorMatrix in="SourceAlpha" type="matrix" values="0 0 0 0 0 0 0 0 0 0 0 0 0 0 0 0 0 0 127 0" result="hardAlpha"/>
<feMorphology radius="1" operator="dilate" in="SourceAlpha" result="effect1_dropShadow_25_62"/>
<feOffset dy="4"/>
<feGaussianBlur stdDeviation="5"/>
<feComposite in2="hardAlpha" operator="out"/>
<feColorMatrix type="matrix" values="0 0 0 0 1 0 0 0 0 1 0 0 0 0 1 0 0 0 0.37 0"/>
<feBlend mode="normal" in2="BackgroundImageFix" result="effect1_dropShadow_25_62"/>
<feBlend mode="normal" in="SourceGraphic" in2="effect1_dropShadow_25_62" result="shape"/>
</filter>
</defs>
</svg>
