<svg width="75" height="79" viewBox="0 0 75 79" fill="none" xmlns="http://www.w3.org/2000/svg">
<g filter="url(#filter0_d_3_103)">
<rect x="11.1003" y="11.7162" width="52.1092" height="52.1092" rx="26.0546" fill="#390000"/>
<rect x="12.1003" y="12.7162" width="50.1092" height="50.1092" rx="25.0546" stroke="#010042" stroke-width="2"/>
</g>
<path d="M36.8892 49.2841C36.0133 49.2841 35.2616 48.9704 34.6342 48.343C34.0069 47.7157 33.6932 46.964 33.6932 46.0881C33.6932 45.2121 34.0069 44.4605 34.6342 43.8331C35.2616 43.2057 36.0133 42.892 36.8892 42.892C37.7652 42.892 38.5168 43.2057 39.1442 43.8331C39.7715 44.4605 40.0852 45.2121 40.0852 46.0881C40.0852 46.6681 39.9373 47.2008 39.6413 47.6861C39.3572 48.1714 38.9725 48.562 38.4872 48.858C38.0137 49.142 37.4811 49.2841 36.8892 49.2841Z" fill="white"/>
<defs>
<filter id="filter0_d_3_103" x="0.100281" y="4.71622" width="74.1093" height="74.1093" filterUnits="userSpaceOnUse" color-interpolation-filters="sRGB">
<feFlood flood-opacity="0" result="BackgroundImageFix"/>
<feColorMatrix in="SourceAlpha" type="matrix" values="0 0 0 0 0 0 0 0 0 0 0 0 0 0 0 0 0 0 127 0" result="hardAlpha"/>
<feMorphology radius="1" operator="dilate" in="SourceAlpha" result="effect1_dropShadow_3_103"/>
<feOffset dy="4"/>
<feGaussianBlur stdDeviation="5"/>
<feComposite in2="hardAlpha" operator="out"/>
<feColorMatrix type="matrix" values="0 0 0 0 1 0 0 0 0 1 0 0 0 0 1 0 0 0 0.37 0"/>
<feBlend mode="normal" in2="BackgroundImageFix" result="effect1_dropShadow_3_103"/>
<feBlend mode="normal" in="SourceGraphic" in2="effect1_dropShadow_3_103" result="shape"/>
</filter>
</defs>
</svg>
