<svg width="75" height="76" viewBox="0 0 75 76" fill="none" xmlns="http://www.w3.org/2000/svg">
<g filter="url(#filter0_d_25_59)">
<rect x="11.1355" y="7.90543" width="52.1092" height="52.1092" rx="26.0546" fill="#91B7EF"/>
<rect x="12.1355" y="8.90543" width="50.1092" height="50.1092" rx="25.0546" stroke="#8995FF" stroke-width="2"/>
</g>
<path d="M37.6583 48.3978C36.4651 48.3788 35.2719 48.1515 34.0787 47.7159C32.8856 47.2803 31.7965 46.5464 30.8117 45.5142C29.8268 44.4726 29.0361 43.0663 28.4395 41.2955C27.8429 39.5152 27.5446 37.2803 27.5446 34.5909C27.5446 32.0152 27.7861 29.733 28.2691 27.7443C28.752 25.7462 29.4528 24.0654 30.3713 22.7017C31.2899 21.3286 32.3979 20.287 33.6952 19.5767C35.002 18.8665 36.4746 18.5114 38.1128 18.5114C39.7416 18.5114 41.1905 18.8381 42.4594 19.4915C43.7378 20.1354 44.7795 21.0351 45.5844 22.1904C46.3893 23.3457 46.9102 24.6762 47.1469 26.1818H43.681C43.359 24.875 42.734 23.7907 41.806 22.929C40.878 22.0673 39.6469 21.6364 38.1128 21.6364C35.859 21.6364 34.0835 22.6165 32.7861 24.5767C31.4982 26.537 30.8496 29.2879 30.8401 32.8296H31.0674C31.5977 32.0247 32.2274 31.3381 32.9566 30.7699C33.6952 30.1923 34.5096 29.7472 35.3998 29.4347C36.2899 29.1222 37.2321 28.9659 38.2265 28.9659C39.8931 28.9659 41.4177 29.3826 42.8003 30.2159C44.1829 31.0398 45.2909 32.1809 46.1242 33.6392C46.9575 35.0881 47.3742 36.75 47.3742 38.625C47.3742 40.4243 46.9717 42.072 46.1668 43.5682C45.3619 45.055 44.2302 46.2387 42.7719 47.1193C41.3231 47.9906 39.6185 48.4167 37.6583 48.3978ZM37.6583 45.2728C38.8515 45.2728 39.9215 44.9745 40.8685 44.3779C41.8249 43.7813 42.5778 42.9811 43.127 41.9773C43.6857 40.9735 43.9651 39.8561 43.9651 38.625C43.9651 37.4224 43.6952 36.3286 43.1554 35.3438C42.6251 34.3495 41.8912 33.5587 40.9537 32.9716C40.0257 32.3845 38.9651 32.0909 37.7719 32.0909C36.8723 32.0909 36.0342 32.2709 35.2577 32.6307C34.4812 32.9811 33.7994 33.464 33.2123 34.0796C32.6346 34.6951 32.1801 35.4006 31.8486 36.1961C31.5172 36.982 31.3515 37.8106 31.3515 38.6818C31.3515 39.8372 31.6213 40.9167 32.1611 41.9205C32.7104 42.9243 33.4585 43.7339 34.4054 44.3495C35.3619 44.965 36.4462 45.2728 37.6583 45.2728Z" fill="black"/>
<defs>
<filter id="filter0_d_25_59" x="0.135468" y="0.905426" width="74.1093" height="74.1092" filterUnits="userSpaceOnUse" color-interpolation-filters="sRGB">
<feFlood flood-opacity="0" result="BackgroundImageFix"/>
<feColorMatrix in="SourceAlpha" type="matrix" values="0 0 0 0 0 0 0 0 0 0 0 0 0 0 0 0 0 0 127 0" result="hardAlpha"/>
<feMorphology radius="1" operator="dilate" in="SourceAlpha" result="effect1_dropShadow_25_59"/>
<feOffset dy="4"/>
<feGaussianBlur stdDeviation="5"/>
<feComposite in2="hardAlpha" operator="out"/>
<feColorMatrix type="matrix" values="0 0 0 0 1 0 0 0 0 1 0 0 0 0 1 0 0 0 0.37 0"/>
<feBlend mode="normal" in2="BackgroundImageFix" result="effect1_dropShadow_25_59"/>
<feBlend mode="normal" in="SourceGraphic" in2="effect1_dropShadow_25_59" result="shape"/>
</filter>
</defs>
</svg>
