<svg width="75" height="76" viewBox="0 0 75 76" fill="none" xmlns="http://www.w3.org/2000/svg">
<g filter="url(#filter0_d_3_130)">
<rect x="11.1476" y="7.9054" width="52.1092" height="52.1092" rx="26.0546" fill="#390000"/>
<rect x="12.1476" y="8.9054" width="50.1092" height="50.1092" rx="25.0546" stroke="#010042" stroke-width="2"/>
</g>
<path d="M37.6705 48.3977C36.4773 48.3788 35.2841 48.1515 34.0909 47.7159C32.8977 47.2803 31.8087 46.5464 30.8239 45.5142C29.839 44.4725 29.0483 43.0663 28.4517 41.2955C27.8551 39.5152 27.5568 37.2803 27.5568 34.5909C27.5568 32.0152 27.7983 29.733 28.2812 27.7443C28.7642 25.7462 29.465 24.0653 30.3835 22.7017C31.3021 21.3286 32.41 20.2869 33.7074 19.5767C35.0142 18.8665 36.4867 18.5114 38.125 18.5114C39.7538 18.5114 41.2027 18.8381 42.4716 19.4915C43.75 20.1354 44.7917 21.035 45.5966 22.1903C46.4015 23.3456 46.9223 24.6761 47.1591 26.1818H43.6932C43.3712 24.875 42.7462 23.7907 41.8182 22.929C40.8902 22.0672 39.6591 21.6364 38.125 21.6364C35.8712 21.6364 34.0956 22.6165 32.7983 24.5767C31.5104 26.5369 30.8617 29.2879 30.8523 32.8295H31.0795C31.6098 32.0246 32.2396 31.3381 32.9688 30.7699C33.7074 30.1922 34.5218 29.7472 35.4119 29.4347C36.3021 29.1222 37.2443 28.9659 38.2386 28.9659C39.9053 28.9659 41.4299 29.3826 42.8125 30.2159C44.1951 31.0398 45.303 32.1809 46.1364 33.6392C46.9697 35.0881 47.3864 36.75 47.3864 38.625C47.3864 40.4242 46.9839 42.072 46.179 43.5682C45.3741 45.0549 44.2424 46.2386 42.7841 47.1193C41.3352 47.9905 39.6307 48.4167 37.6705 48.3977ZM37.6705 45.2727C38.8636 45.2727 39.9337 44.9744 40.8807 44.3778C41.8371 43.7812 42.59 42.9811 43.1392 41.9773C43.6979 40.9735 43.9773 39.8561 43.9773 38.625C43.9773 37.4223 43.7074 36.3286 43.1676 35.3438C42.6373 34.3494 41.9034 33.5587 40.9659 32.9716C40.0379 32.3845 38.9773 32.0909 37.7841 32.0909C36.8845 32.0909 36.0464 32.2708 35.2699 32.6307C34.4934 32.9811 33.8116 33.464 33.2244 34.0795C32.6468 34.6951 32.1922 35.4006 31.8608 36.196C31.5294 36.982 31.3636 37.8106 31.3636 38.6818C31.3636 39.8371 31.6335 40.9167 32.1733 41.9205C32.7225 42.9242 33.4706 43.7339 34.4176 44.3494C35.3741 44.965 36.4583 45.2727 37.6705 45.2727Z" fill="white"/>
<defs>
<filter id="filter0_d_3_130" x="0.147644" y="0.905396" width="74.1093" height="74.1092" filterUnits="userSpaceOnUse" color-interpolation-filters="sRGB">
<feFlood flood-opacity="0" result="BackgroundImageFix"/>
<feColorMatrix in="SourceAlpha" type="matrix" values="0 0 0 0 0 0 0 0 0 0 0 0 0 0 0 0 0 0 127 0" result="hardAlpha"/>
<feMorphology radius="1" operator="dilate" in="SourceAlpha" result="effect1_dropShadow_3_130"/>
<feOffset dy="4"/>
<feGaussianBlur stdDeviation="5"/>
<feComposite in2="hardAlpha" operator="out"/>
<feColorMatrix type="matrix" values="0 0 0 0 1 0 0 0 0 1 0 0 0 0 1 0 0 0 0.37 0"/>
<feBlend mode="normal" in2="BackgroundImageFix" result="effect1_dropShadow_3_130"/>
<feBlend mode="normal" in="SourceGraphic" in2="effect1_dropShadow_3_130" result="shape"/>
</filter>
</defs>
</svg>
