<svg width="75" height="75" viewBox="0 0 75 75" fill="none" xmlns="http://www.w3.org/2000/svg">
<g filter="url(#filter0_d_3_118)">
<rect x="11.1476" y="7.81079" width="52.1092" height="52.1092" rx="26.0546" fill="#390000"/>
<rect x="12.1476" y="8.81079" width="50.1092" height="50.1092" rx="25.0546" stroke="#010042" stroke-width="2"/>
</g>
<path d="M37.8409 48.3977C35.9659 48.3977 34.2945 48.0758 32.8267 47.4318C31.3684 46.7879 30.2083 45.893 29.3466 44.7472C28.4943 43.5919 28.0303 42.2519 27.9545 40.7273H31.5341C31.6098 41.6648 31.9318 42.4744 32.5 43.1562C33.0682 43.8286 33.8116 44.3494 34.7301 44.7188C35.6487 45.0881 36.6667 45.2727 37.7841 45.2727C39.0341 45.2727 40.142 45.0549 41.108 44.6193C42.0739 44.1837 42.8314 43.5777 43.3807 42.8011C43.9299 42.0246 44.2045 41.125 44.2045 40.1023C44.2045 39.0322 43.9394 38.09 43.4091 37.2756C42.8788 36.4517 42.1023 35.8078 41.0795 35.3438C40.0568 34.8797 38.8068 34.6477 37.3295 34.6477H35V31.5227H37.3295C38.4848 31.5227 39.4981 31.3144 40.3693 30.8977C41.25 30.4811 41.9366 29.8939 42.429 29.1364C42.9309 28.3788 43.1818 27.4886 43.1818 26.4659C43.1818 25.4811 42.964 24.6241 42.5284 23.8949C42.0928 23.1657 41.4773 22.5975 40.6818 22.1903C39.8958 21.7831 38.9678 21.5795 37.8977 21.5795C36.8939 21.5795 35.947 21.7642 35.0568 22.1335C34.1761 22.4934 33.4564 23.0189 32.8977 23.7102C32.339 24.392 32.036 25.2159 31.9886 26.1818H28.5795C28.6364 24.6572 29.0956 23.322 29.9574 22.1761C30.8191 21.0208 31.946 20.1212 33.3381 19.4773C34.7396 18.8333 36.2784 18.5114 37.9545 18.5114C39.7538 18.5114 41.2973 18.8759 42.5852 19.6051C43.8731 20.3248 44.8627 21.2765 45.554 22.4602C46.2453 23.6439 46.5909 24.9223 46.5909 26.2955C46.5909 27.9337 46.16 29.3305 45.2983 30.4858C44.446 31.6411 43.286 32.4413 41.8182 32.8864V33.1136C43.6553 33.4167 45.09 34.1979 46.1222 35.4574C47.1544 36.7074 47.6705 38.2557 47.6705 40.1023C47.6705 41.6837 47.2396 43.1042 46.3778 44.3636C45.5256 45.6136 44.3608 46.5985 42.8835 47.3182C41.4063 48.0379 39.7254 48.3977 37.8409 48.3977Z" fill="white"/>
<defs>
<filter id="filter0_d_3_118" x="0.147644" y="0.810791" width="74.1093" height="74.1093" filterUnits="userSpaceOnUse" color-interpolation-filters="sRGB">
<feFlood flood-opacity="0" result="BackgroundImageFix"/>
<feColorMatrix in="SourceAlpha" type="matrix" values="0 0 0 0 0 0 0 0 0 0 0 0 0 0 0 0 0 0 127 0" result="hardAlpha"/>
<feMorphology radius="1" operator="dilate" in="SourceAlpha" result="effect1_dropShadow_3_118"/>
<feOffset dy="4"/>
<feGaussianBlur stdDeviation="5"/>
<feComposite in2="hardAlpha" operator="out"/>
<feColorMatrix type="matrix" values="0 0 0 0 1 0 0 0 0 1 0 0 0 0 1 0 0 0 0.37 0"/>
<feBlend mode="normal" in2="BackgroundImageFix" result="effect1_dropShadow_3_118"/>
<feBlend mode="normal" in="SourceGraphic" in2="effect1_dropShadow_3_118" result="shape"/>
</filter>
</defs>
</svg>
