<svg width="75" height="75" viewBox="0 0 75 75" fill="none" xmlns="http://www.w3.org/2000/svg">
<g filter="url(#filter0_d_25_46)">
<rect x="11.1355" y="7.81082" width="52.1092" height="52.1092" rx="26.0546" fill="#91B7EF"/>
<rect x="12.1355" y="8.81082" width="50.1092" height="50.1092" rx="25.0546" stroke="#8995FF" stroke-width="2"/>
</g>
<path d="M37.8287 48.3978C35.9537 48.3978 34.2823 48.0758 32.8145 47.4318C31.3562 46.7879 30.1962 45.893 29.3344 44.7472C28.4821 43.5919 28.0181 42.2519 27.9424 40.7273H31.5219C31.5977 41.6648 31.9196 42.4745 32.4878 43.1563C33.056 43.8286 33.7994 44.3495 34.7179 44.7188C35.6365 45.0881 36.6545 45.2728 37.7719 45.2728C39.0219 45.2728 40.1299 45.055 41.0958 44.6193C42.0617 44.1837 42.8193 43.5777 43.3685 42.8012C43.9177 42.0247 44.1924 41.125 44.1924 40.1023C44.1924 39.0322 43.9272 38.09 43.3969 37.2756C42.8666 36.4517 42.0901 35.8078 41.0674 35.3438C40.0446 34.8798 38.7946 34.6478 37.3174 34.6478H34.9878V31.5228H37.3174C38.4727 31.5228 39.4859 31.3144 40.3571 30.8978C41.2378 30.4811 41.9244 29.894 42.4168 29.1364C42.9187 28.3788 43.1696 27.4887 43.1696 26.4659C43.1696 25.4811 42.9518 24.6241 42.5162 23.8949C42.0806 23.1657 41.4651 22.5976 40.6696 22.1904C39.8837 21.7832 38.9556 21.5796 37.8856 21.5796C36.8818 21.5796 35.9348 21.7642 35.0446 22.1336C34.164 22.4934 33.4443 23.019 32.8856 23.7103C32.3268 24.3921 32.0238 25.2159 31.9765 26.1818H28.5674C28.6242 24.6572 29.0835 23.322 29.9452 22.1762C30.807 21.0209 31.9338 20.1212 33.3259 19.4773C34.7274 18.8334 36.2662 18.5114 37.9424 18.5114C39.7416 18.5114 41.2852 18.876 42.5731 19.6051C43.8609 20.3248 44.8505 21.2765 45.5418 22.4603C46.2331 23.644 46.5787 24.9224 46.5787 26.2955C46.5787 27.9337 46.1479 29.3305 45.2861 30.4858C44.4338 31.6411 43.2738 32.4413 41.806 32.8864V33.1137C43.6431 33.4167 45.0778 34.1979 46.11 35.4574C47.1422 36.7074 47.6583 38.2557 47.6583 40.1023C47.6583 41.6837 47.2274 43.1042 46.3657 44.3637C45.5134 45.6137 44.3486 46.5985 42.8713 47.3182C41.3941 48.0379 39.7132 48.3978 37.8287 48.3978Z" fill="black"/>
<defs>
<filter id="filter0_d_25_46" x="0.135468" y="0.810822" width="74.1093" height="74.1093" filterUnits="userSpaceOnUse" color-interpolation-filters="sRGB">
<feFlood flood-opacity="0" result="BackgroundImageFix"/>
<feColorMatrix in="SourceAlpha" type="matrix" values="0 0 0 0 0 0 0 0 0 0 0 0 0 0 0 0 0 0 127 0" result="hardAlpha"/>
<feMorphology radius="1" operator="dilate" in="SourceAlpha" result="effect1_dropShadow_25_46"/>
<feOffset dy="4"/>
<feGaussianBlur stdDeviation="5"/>
<feComposite in2="hardAlpha" operator="out"/>
<feColorMatrix type="matrix" values="0 0 0 0 1 0 0 0 0 1 0 0 0 0 1 0 0 0 0.37 0"/>
<feBlend mode="normal" in2="BackgroundImageFix" result="effect1_dropShadow_25_46"/>
<feBlend mode="normal" in="SourceGraphic" in2="effect1_dropShadow_25_46" result="shape"/>
</filter>
</defs>
</svg>
